<svg xmlns="http://www.w3.org/2000/svg" xmlns:xlink="http://www.w3.org/1999/xlink" contentStyleType="text/css" data-diagram-type="DESCRIPTION" height="408px" preserveAspectRatio="none" style="width:321px;height:408px;background:#FFFFFF;" version="1.1" viewBox="0 0 321 408" width="321px" zoomAndPan="magnify"><defs/><g><!--entity d--><g id="elem_d"><ellipse cx="54.5283" cy="14" fill="#ADD8E6" rx="8" ry="8" style="stroke:#181818;stroke-width:0.5;"/><path d="M54.5283,22 L54.5283,49 M41.5283,30 L67.5283,30 M54.5283,49 L41.5283,64 M54.5283,49 L67.5283,64 " fill="#FFFFFF" fill-opacity="0.00000" style="stroke:#181818;stroke-width:0.5;"/><text fill="#000000" font-family="sans-serif" font-size="14" lengthAdjust="spacing" textLength="97.0566" x="6" y="78.4951">D&#233;veloppeurs</text></g><!--entity g--><g id="elem_g"><ellipse cx="216.5291" cy="14" fill="#ADD8E6" rx="8" ry="8" style="stroke:#181818;stroke-width:0.5;"/><path d="M216.5291,22 L216.5291,49 M203.5291,30 L229.5291,30 M216.5291,49 L203.5291,64 M216.5291,49 L229.5291,64 " fill="#FFFFFF" fill-opacity="0.00000" style="stroke:#181818;stroke-width:0.5;"/><text fill="#000000" font-family="sans-serif" font-size="14" lengthAdjust="spacing" textLength="96.5781" x="168.24" y="78.4951">Gestionnaires</text></g><!--entity c--><g id="elem_c"><rect fill="#90EE90" height="36.2969" rx="2.5" ry="2.5" style="stroke:#181818;stroke-width:0.5;" width="72.4248" x="180.32" y="158.8"/><text fill="#000000" font-family="sans-serif" font-size="14" lengthAdjust="spacing" textLength="52.4248" x="190.32" y="181.7951">CScope</text></g><!--entity gh--><g id="elem_gh"><rect fill="#ADD8E6" height="36.2969" rx="2.5" ry="2.5" style="stroke:#181818;stroke-width:0.5;" width="68.5146" x="18.27" y="272.09"/><text fill="#000000" font-family="sans-serif" font-size="14" lengthAdjust="spacing" textLength="48.5146" x="28.27" y="295.0851">GitHub</text></g><!--link c to gh--><g id="link_c_gh"><path d="M190.54,195.58 C159.83,216.42 114.0145,247.5104 83.3545,268.3204 " fill="#FFFFFF" fill-opacity="0.00000" id="c-to-gh" style="stroke:#181818;stroke-width:1;"/><polygon fill="#181818" points="78.39,271.69,88.0831,269.9453,82.5271,268.882,83.5903,263.326,78.39,271.69" style="stroke:#181818;stroke-width:1;"/><text fill="#000000" font-family="sans-serif" font-size="13" lengthAdjust="spacing" textLength="168.3843" x="145.53" y="238.1569">Affichage des donn&#233;es de</text></g><!--link d to c--><g id="link_d_c"><path d="M95.34,82.02 C112.12,96.95 131.94,114.07 150.53,128.8 C163.44,139.03 173.4211,146.3143 185.7911,154.9543 " fill="#FFFFFF" fill-opacity="0.00000" id="d-to-c" style="stroke:#181818;stroke-width:1;"/><polygon fill="#181818" points="190.71,158.39,185.6221,149.9572,186.6109,155.5269,181.0411,156.5157,190.71,158.39" style="stroke:#181818;stroke-width:1;"/><text fill="#000000" font-family="sans-serif" font-size="13" lengthAdjust="spacing" textLength="56.9893" x="151.53" y="124.8669">Consulte</text></g><!--link g to c--><g id="link_g_c"><path d="M216.53,82.27 C216.53,107.28 216.53,132.96 216.53,152.33 " fill="#FFFFFF" fill-opacity="0.00000" id="g-to-c" style="stroke:#181818;stroke-width:1;"/><polygon fill="#181818" points="216.53,158.33,220.53,149.33,216.53,153.33,212.53,149.33,216.53,158.33" style="stroke:#181818;stroke-width:1;"/><text fill="#000000" font-family="sans-serif" font-size="13" lengthAdjust="spacing" textLength="56.9893" x="217.53" y="124.8669">Consulte</text></g><!--link d to gh--><g id="link_d_gh"><path d="M47.79,82.01 C43.1,112.42 38.08,156.48 40.53,195.09 C42.23,221.9 45.6971,246.813 48.6671,265.683 " fill="#FFFFFF" fill-opacity="0.00000" id="d-to-gh" style="stroke:#181818;stroke-width:1;"/><polygon fill="#181818" points="49.6,271.61,52.152,262.0975,48.8226,266.6708,44.2493,263.3414,49.6,271.61" style="stroke:#181818;stroke-width:1;"/><text fill="#000000" font-family="sans-serif" font-size="13" lengthAdjust="spacing" textLength="120.1484" x="41.53" y="181.5069">Publie du code sur</text></g><rect fill="#DDDDDD" height="62.8906" id="_legend" rx="7.5" ry="7.5" style="stroke:#000000;stroke-width:1;" width="168.9219" x="126.9924" y="325.3869"/><text fill="#000000" font-family="sans-serif" font-size="14" lengthAdjust="spacing" textLength="54.3457" x="131.9924" y="345.382">Couleur</text><text fill="#000000" font-family="sans-serif" font-size="14" lengthAdjust="spacing" textLength="34.3369" x="190.7883" y="345.382">Type</text><rect fill="#90EE90" height="16.2969" style="stroke:#FFFFFF00;stroke-width:1;" width="54.3457" x="131.9924" y="348.6838"/><text fill="#000000" font-family="sans-serif" font-size="14" lengthAdjust="spacing" textLength="4.4502" x="131.9924" y="361.6789">&#160;</text><text fill="#000000" font-family="sans-serif" font-size="14" lengthAdjust="spacing" textLength="60.8193" x="190.7883" y="361.6789">Syst&#232;me</text><rect fill="#ADD8E6" height="16.2969" style="stroke:#FFFFFF00;stroke-width:1;" width="54.3457" x="131.9924" y="364.9806"/><text fill="#000000" font-family="sans-serif" font-size="14" lengthAdjust="spacing" textLength="4.4502" x="131.9924" y="377.9757">&#160;</text><text fill="#000000" font-family="sans-serif" font-size="14" lengthAdjust="spacing" textLength="100.126" x="190.7883" y="377.9757">Entit&#233; Externe</text><line style="stroke:#000000;stroke-width:1;" x1="131.9924" x2="290.9143" y1="332.3869" y2="332.3869"/><line style="stroke:#000000;stroke-width:1;" x1="131.9924" x2="290.9143" y1="348.6838" y2="348.6838"/><line style="stroke:#000000;stroke-width:1;" x1="131.9924" x2="290.9143" y1="364.9806" y2="364.9806"/><line style="stroke:#000000;stroke-width:1;" x1="131.9924" x2="290.9143" y1="381.2775" y2="381.2775"/><line style="stroke:#000000;stroke-width:1;" x1="131.9924" x2="131.9924" y1="332.3869" y2="381.2775"/><line style="stroke:#000000;stroke-width:1;" x1="186.3381" x2="186.3381" y1="332.3869" y2="381.2775"/><line style="stroke:#000000;stroke-width:1;" x1="290.9143" x2="290.9143" y1="332.3869" y2="381.2775"/><!--SRC=[POz1QWGX44Ntdg8Wwxb020D9P-WiiXYONC3HFxPWjD4oPC03fS_H5uiwisWIL_BhyL-LL1mYlQxB5roOP-IOI2RIzF1kpSGlBaF8pen8R8FtqaPqncoP2CNI6mSQJYhCQ82w0sC4_8OOBR_bSw-OjXr2qMwtR-4ZFLykLatIW7IrwUfTb_Q1q1rIbHc2JzanI9X_sHthNSTyThOMPL91WrAEGZWOU4snoGNLLuQGNJs_qCUrhbzkuTFcWdsXqpNn-lFvTzoshzE3PylhGeTlHlGeeXfkdby0]--></g></svg>